<?xml version="1.0" encoding="utf-8"?>
<!-- Generator: Adobe Illustrator 27.3.1, SVG Export Plug-In . SVG Version: 6.00 Build 0)  -->
<svg version="1.2" baseProfile="tiny" id="icon-0" xmlns:svgjs="http://svgjs.dev/svgjs"
	 xmlns="http://www.w3.org/2000/svg" xmlns:xlink="http://www.w3.org/1999/xlink" x="0px" y="0px" viewBox="0 0 1000 1125"
	 overflow="visible" xml:space="preserve">
<g transform="matrix(1,0,0,1,0.00007343750002064553,0)">
	<g id="tight-bounds" transform="matrix(1,0,0,1,0.000023499999997511622,0)">
		<g>
			<g>
				<path fill="#6EE2F5" d="M65.5,710.1l11.6,14.6l-5.8-18.9C69.9,697,59.7,707.2,65.5,710.1 M78.6,701.3c4.4,7.3,8.7,14.6,8.7,21.8
					c0,10.2,8.7,14.6,16,17.5C93.2,729,87.3,697,78.6,701.3 M637.6,84.2c24.7,0,48-2.9,74.2,2.9c64,16,117.9,48,154.3,93.2
					l101.9,163c4.4,40.8,13.1,85.9,11.6,135.4c10.2,0,8.7-14.6,20.4-17.5c-11.6,29.1-17.5,65.5-20.4,107.7
					c-7.3-23.3,0-58.2,1.5-77.1c-10.2,16-16,4.4-16-2.9c1.5-11.6-4.4-10.2-8.7-14.6c-16-14.6-26.2-30.6-37.8-55.3
					c7.3-18.9,8.7-46.6-14.6-61.1c-7.3-4.4-16-11.6-20.4-23.3c-5.8-16-16-34.9-13.1-59.7c1.5-7.3-21.8,16-34.9,5.8
					c-56.8-39.3-113.5-84.4-182-122.3c-36.4,0-62.6-13.1-75.7-29.1c-11.6-14.6-2.9-33.5,14.6-34.9c10.2,0,21.8-2.9,30.6,2.9
					C624.5,91.4,630.3,84.2,637.6,84.2 M493.4,50.7l2.9,1.5c14.6,2.9,21.8,23.3,37.8,16c0,10.2,1.5,20.4-1.5,27.7
					c-4.4,11.6-17.5,11.6-27.7,11.6c-97.5-5.8-154.3,34.9-214,69.9c-16,10.2-33.5,17.5-46.6,30.6c-62.6,58.2-131,112.1-147,219.8
					L84.4,547c-1.5,13.1-16,26.2-13.1,42.2l10.2,71.3c-10.2-10.2-16,2.9-13.1,8.7c1.5,4.4,7.3,18.9,16,5.8
					c11.6,21.8,23.3,64,39.3,83c49.5,58.2,113.5,110.6,165.9,163c13.1-2.9,23.3-2.9,26.2-11.6c4.4,8.7-4.4,17.5-11.6,18.9
					c23.3,14.6,49.5,27.7,84.4,30.6c45.1,2.9,87.3,10.2,126.6,20.4c20.4-5.8,40.8-8.7,62.6-10.2c7.3,0,11.6-11.6,20.4-14.6l1.5-14.6
					c8.7,13.1,7.3-4.4,1.5-13.1c10.2,8.7,13.1,16,17.5,21.8c0-4.4,11.6-20.4,11.6-1.5l2.9-18.9c4.4-2.9,5.8,16,10.2,2.9
					s13.1-2.9,21.8-7.3c-2.9,5.8-1.5,17.5,8.7,10.2l11.6-10.2c7.3,17.5,18.9,10.2,24.7,7.3c64-40.8,128.1-88.8,189.2-136.8
					l-1.5,18.9l7.3-23.3c7.3,7.3,13.1,1.5,16-2.9c8.7-14.6,20.4-29.1,39.3-42.2c-23.3,62.6-50.9,112.1-85.9,152.8L860,915.1
					c0,10.2-2.9,23.3-14.6,24.7c-5.8,1.5-17.5-2.9-26.2,5.8c-4.4,5.8,10.2,17.5-1.5,8.7c-10.2-7.3-20.4,0-32,2.9
					c-8.7,2.9,5.8,11.6,8.7,17.5c2.9,5.8,5.8,11.6,4.4,18.9l-16-17.5c-18.9,10.2-30.6,29.1-46.6,43.7c-7.3,5.8-4.4,16-4.4,24.7
					c-10.2,0-21.8-2.9-27.7,2.9c-4.4,5.8-2.9,14.6-2.9,23.3c-14.6-1.5-16-23.3-29.1-18.9c-13.1,2.9-27.7,4.4-39.3,11.6
					c8.7,17.5-14.6,7.3-11.6,10.2c-21.8-13.1-40.8-23.3-64-14.6c-49.5-16-110.6-8.7-155.7-2.9c0-7.3,1.5-14.6-1.5-16
					c-2.9,7.3-11.6,4.4-10.2,4.4c-27.7-18.9-55.3-30.6-84.4-46.6c-26.2,2.9-50.9-10.2-58.2-17.5c-20.4-18.9-43.7-8.7-62.6-13.1
					c-40.8-10.2-55.3-52.4-59.7-81.5c-2.9-14.6-14.6-20.4-18.9-18.9c-18.9-61.1-48-116.4-71.3-173.2c-5.8-14.6-4.4-29.1-4.4-45.1
					c7.3,2.9,14.6,1.5,13.1-8.7c-7.3-48-24.7-84.4-43.7-119.4C9.9,471,11.3,412.8,34.6,369.1c20.4-39.3,58.2-59.7,84.4-93.2
					c8.7-11.6,8.7-27.7,17.5-37.8c29.1-29.1,58.2-59.7,90.2-85.9c14.6-11.6,32,0,53.9-4.4c7.3-26.2,36.4-49.5,64-42.2
					c11.6,2.9,34.9-27.7,42.2-30.6c11.6-4.4,5.8,11.6,5.8,21.8C420.7,75.4,458.5,63.8,493.4,50.7"/>
			</g>
			<g transform="matrix(1,0,0,1,77.63118641268308,90)">
				<g>
					<g>
						<g transform="matrix(1,0,0,1,0.9996112649235869,157.75859106679806)">
							<g id="textblocktransform">
								<g>
									<g transform="matrix(1,0,0,1,0,0)">
										<path id="text-0" fill="#6EE2F5" d="M166.7,452.1h88.7V468h-69.1v47.8h55.9V531h-55.9v49.1h69.1V596h-88.7V452.1z
											 M293.3,452.1L293.3,452.1c1.7,0,3,0.2,3.9,0.7c0.8,0.4,1.8,1.3,2.9,2.7l0,0l83.3,108.4c-0.2-1.7-0.3-3.4-0.4-5.1
											c-0.1-1.7-0.1-3.3-0.1-4.8l0,0V452.1H400V596h-9.8c-1.6,0-2.9-0.3-3.9-0.8s-2-1.4-3.1-2.7l0,0L300,484.2
											c0.1,1.7,0.2,3.3,0.3,4.9c0.1,1.6,0.1,3.1,0.1,4.4l0,0V596h-17.1V452.1H293.3z M495.9,452.1L553.4,596h-15.1
											c-1.7,0-3.1-0.4-4.2-1.3c-1.1-0.9-1.9-2-2.4-3.3l0,0l-13.5-34.7h-64.6l-13.4,34.7c-0.5,1.2-1.3,2.3-2.4,3.2
											s-2.5,1.4-4.2,1.4l0,0h-15.1L476,452.1L495.9,452.1L495.9,452.1z M481.7,484.2l-22.6,58.4h53.7L490.3,484
											c-1.5-3.6-2.9-8.1-4.3-13.5l0,0c-0.7,2.7-1.5,5.3-2.2,7.6C483.1,480.4,482.4,482.4,481.7,484.2L481.7,484.2z M599.9,596
											l-58.6-143.9h15.6c1.7,0,3.1,0.4,4.2,1.3c1.1,0.9,1.9,2,2.4,3.3l0,0l40.6,101.5c0.9,2.3,1.8,4.8,2.6,7.4
											c0.8,2.7,1.5,5.4,2.2,8.3l0,0c0.6-2.9,1.3-5.6,2-8.3s1.5-5.2,2.4-7.4l0,0l40.5-101.5c0.5-1.1,1.3-2.2,2.4-3.1
											c1.1-1,2.5-1.5,4.2-1.5l0,0h15.7L617.5,596H599.9z"/>
									</g>
								</g>
							</g>
						</g>
						<g>
							<g>
								<g>
									<path fill="#6EE2F5" d="M165,577.8c0,0,6.5-5.1,18.2-13.6c5.9-4.2,13.7-8.9,22.6-14.3c9.3-4.8,19.5-10.7,31.9-15.3
										c6-2.7,12.6-4.8,19.4-7c6.8-2.4,14.2-3.9,21.7-5.5c7.6-1.9,15.6-2.4,23.7-3.7c8.2-0.4,16.7-1.2,25.2-0.8
										c17.2,0.2,34.9,2.4,52.1,6.4c17.2,3.9,34.2,9.1,50.6,14.6c16.3,5.8,32.2,11.8,47.8,17.1c15.7,5.1,30.9,10.1,46,12.7
										c15.1,2.7,29.7,3.7,43.7,2.9c13.9-1.2,26.9-3.9,38.7-7.7c11.7-3.9,22.1-8.4,31.1-13c9.1-4.4,16.4-9.2,22.9-12.7
										c12.2-7.9,19.2-12.5,19.2-12.5s-5.6,5.8-16,15.7c-5.7,4.4-12.1,10.6-20.8,16.3c-8.4,6-18.6,12.1-30.7,17.5
										c-12.1,5.5-26.3,10-42.1,12.3c-15.8,2.1-32.9,2.3-49.9-0.2c-17.1-2.3-34-6.6-50.4-11.9c-16.4-5.2-32.6-11.1-48.6-16.5
										c-15.9-5.7-31.8-10.8-47.6-14.6c-15.8-3.8-31.5-6.8-47-7.6c-7.7-0.8-15.3-0.2-22.7-0.5c-7.4,0.7-14.8,0.6-21.8,1.8
										c-7.1,1-13.9,1.9-20.5,3.6c-6.6,1.3-13,2.7-19,4.7c-12.2,3.2-22.8,7.6-32.6,11c-9.2,4.2-17.6,7.4-24.3,10.6
										C172.7,574.2,165,577.8,165,577.8z"/>
									<path fill="#6EE2F5" d="M409.2,356.8v-40.5h72.7v40.5H409.2z"/>
									<path fill="#6EE2F5" d="M441.5,308.3v-48.5h8.1v48.5H441.5z"/>
									<path fill="#6EE2F5" d="M577.4,393.1l-55.9-173.3l-80.1,32v-8.1l105-52.5L646,393L577.4,393.1"/>
									<path fill="#6EE2F5" d="M562.6,416l-2.7,12.4H392.4l-2.7-12.4h-30.4v-65H312v-86h-26.7v86h-16.4h-8.2v-20.6h-13.3v-32.3
										H234v32.3h-12.3V351h-13.4v52.9h48.3V416h-76l34.9,110c6.7-3.5,14-7.2,22.3-10.3c6-2.7,12.6-4.8,19.4-7
										c6.8-2.4,14.2-3.9,21.7-5.6c7.6-1.9,15.6-2.4,23.7-3.7c8.2-0.4,16.7-1.2,25.2-0.8c17.2,0.2,34.9,2.4,52.1,6.4
										c17.2,3.9,34.2,9.1,50.6,14.6c16.3,5.8,32.2,11.8,47.8,17.1c15.7,5.1,31,9.7,46,12.7c19.5,4,43.9,7,53.9-8.6l2.8-5.2
										c1.3-2,2.6-4,3.8-6.2c1-1.8,1.9-3.7,2.6-5.5l58.6-108L562.6,416L562.6,416z M283.2,372.5h-59.6v-11.7h59.6
										C283.2,360.9,283.2,372.5,283.2,372.5z M321.2,415.5h-21.6v-20.6h21.6V415.5z M321.2,383.3h-21.6v-20.6h21.6V383.3z
										 M350,415.5h-13.4v-20.6H350V415.5z M350,383.3h-13.4v-20.6H350V383.3z"/>
								</g>
							</g>
						</g>
					</g>
				</g>
			</g>
		</g>
		<rect x="0" display="none" fill="#6EE2F5" width="1000" height="1125"/>
	</g>
</g>
</svg>
