<?xml version="1.0" encoding="utf-8"?>
<!-- Generator: Adobe Illustrator 27.3.1, SVG Export Plug-In . SVG Version: 6.00 Build 0)  -->
<svg version="1.1" id="SvgjsSvg1379" xmlns:svgjs="http://svgjs.dev/svgjs"
	 xmlns="http://www.w3.org/2000/svg" xmlns:xlink="http://www.w3.org/1999/xlink" x="0px" y="0px" viewBox="0 0 2000 1247"
	 enable-background="new 0 0 2000 1247" xml:space="preserve">
<g transform="matrix(1,0,0,1,-1.2121212121212466,0.504858299595071)">
	<g id="tight-bounds" transform="matrix(1,0,0,1,0.2400000000000091,-0.09999999999999432)">
		<rect x="1.4" y="-0.4" fill="none" width="1996.8" height="1248"/>
		<g id="SvgjsG1377">
			<g>
				<g transform="matrix(1,0,0,1,39.55199999999999,47.75892976588629)">
					<g>
						<g>
							<g id="SvgjsG1376">
								<g>
									<g transform="matrix(1,0,0,1,0,0)">
										<g id="SvgjsG1374">
											<path fill="#FFFFFF" d="M474,954.3H161.5V198.2h302.8v146.1H315.5v147h142.6v142.6H315.5v173.4H474V954.3z M672,954.3
												H524.1V198.2h155.8L749.5,560V198.2h146.1v756.1H747.7L672,575.8V954.3z M1089.3,954.3h-147l73.1-756.1h256.1l72.2,756.1
												h-143.5L1189.6,832h-91.5L1089.3,954.3z M1137.7,326.7l-28.2,384.7h68.7l-33.4-384.7H1137.7z M1665.6,954.3h-206.9
												l-93.3-757h144.4l55.5,514.9l49.3-514.9h144.4L1665.6,954.3z"/>
										</g>
									</g>
								</g>
							</g>
						</g>
					</g>
				</g>
			</g>
		</g>
		<defs>
			<filter id="Adobe_OpacityMaskFilter" filterUnits="userSpaceOnUse" x="2.6" y="0" width="1996.8" height="1248">
				<feColorMatrix  type="matrix" values="1 0 0 0 0  0 1 0 0 0  0 0 1 0 0  0 0 0 1 0"/>
			</filter>
		</defs>
		
			<mask maskUnits="userSpaceOnUse" x="2.6" y="0" width="1996.8" height="1248" id="_x31_dd3154c-df1c-448b-9dd0-fc6b4e19d036_00000154396008910048874950000007654244284744381858_">
			<g id="SvgjsG1377_00000109008980610965423290000008139988095891224747_" filter="url(#Adobe_OpacityMaskFilter)">
				<g>
				</g>
				<g>
					<g transform="matrix(1,0,0,1,39.55199999999999,47.75892976588629)">
						<g>
							<g>
								<g id="SvgjsG1376_00000172423106988870588320000004113795418642876071_">
									<g>
										<g transform="matrix(1,0,0,1,0,0)">
											<g id="SvgjsG1374_00000098202948848640917070000000724495830450306724_">
												<path fill="#FFFFFF" d="M475.2,954.8H162.7V198.7h302.8v146.1H316.7v147h142.6v142.6H316.7v173.4h158.4V954.8z
													 M673.2,954.8H525.4V198.7h155.8l69.5,361.8V198.7h146.1v756.1H748.9l-75.7-378.5V954.8z M1090.5,954.8h-147l73.1-756.1
													h256.1l72.2,756.1h-143.5l-10.6-122.4h-91.5L1090.5,954.8z M1138.9,327.2l-28.2,384.7h68.7l-33.4-384.7H1138.9z
													 M1666.8,954.8H1460l-93.3-757H1511l55.5,514.9l49.3-514.9h144.4L1666.8,954.8z"/>
											</g>
										</g>
									</g>
								</g>
							</g>
						</g>
					</g>
					<g>
					</g>
				</g>
			</g>
		</mask>
		
			<linearGradient id="SVGID_1_" gradientUnits="userSpaceOnUse" x1="40.9542" y1="1163.1705" x2="41.9542" y2="1163.1536" gradientTransform="matrix(1996.8156 0 0 -1248.0098 -81772.4141 1452261.625)">
			<stop  offset="0" style="stop-color:#6EE2F5"/>
			<stop  offset="1" style="stop-color:#6454F0"/>
		</linearGradient>
		
			<rect x="2.6" y="0" mask="url(#_x31_dd3154c-df1c-448b-9dd0-fc6b4e19d036_00000154396008910048874950000007654244284744381858_)" fill="url(#SVGID_1_)" width="1996.8" height="1248"/>
		<rect x="1.4" y="-0.4" display="none" fill="none" width="1996.8" height="1248"/>
	</g>
</g>
</svg>
