<?xml version="1.0" encoding="utf-8"?>
<!-- Generator: Adobe Illustrator 27.3.1, SVG Export Plug-In . SVG Version: 6.00 Build 0)  -->
<svg version="1.2" baseProfile="tiny" id="icon-0" xmlns:svgjs="http://svgjs.dev/svgjs"
	 xmlns="http://www.w3.org/2000/svg" xmlns:xlink="http://www.w3.org/1999/xlink" x="0px" y="0px" viewBox="0 0 2000 2250"
	 overflow="visible" xml:space="preserve">
<g transform="matrix(1,0,0,1,0.00014687500004129106,0)">
	<g id="tight-bounds" transform="matrix(1,0,0,1,0.000023499999997511622,0)">
		<g>
			<g>
				<path fill="#FFFFFF" d="M131,1420.1l23.3,29.1l-11.6-37.8C139.7,1393.9,119.4,1414.3,131,1420.1 M157.2,1402.7
					c8.7,14.6,17.5,29.1,17.5,43.7c0,20.4,17.5,29.1,32,34.9C186.3,1458,174.7,1393.9,157.2,1402.7 M1275.1,168.3
					c49.5,0,96.1-5.8,148.5,5.8c128.1,32,235.8,96.1,308.6,186.3L1936,686.5c8.7,81.5,26.2,171.8,23.3,270.7
					c20.4,0,17.5-29.1,40.8-34.9c-23.3,58.2-34.9,131-40.8,215.4c-14.6-46.6,0-116.4,2.9-154.3c-20.4,32-32,8.7-32-5.8
					c2.9-23.3-8.7-20.4-17.5-29.1c-32-29.1-52.4-61.1-75.7-110.6c14.6-37.8,17.5-93.2-29.1-122.3c-14.6-8.7-32-23.3-40.8-46.6
					c-11.6-32-32-69.9-26.2-119.4c2.9-14.6-43.7,32-69.9,11.6c-113.5-78.6-227.1-168.8-363.9-244.5c-72.8,0-125.2-26.2-151.4-58.2
					c-23.3-29.1-5.8-67,29.1-69.9c20.4,0,43.7-5.8,61.1,5.8C1248.9,182.9,1260.6,168.3,1275.1,168.3 M986.9,101.3l5.8,2.9
					c29.1,5.8,43.7,46.6,75.7,32c0,20.4,2.9,40.8-2.9,55.3c-8.7,23.3-34.9,23.3-55.3,23.3c-195.1-11.6-308.6,69.9-427.9,139.7
					c-32,20.4-67,34.9-93.2,61.1c-125.2,116.4-262,224.2-294,439.6l-26.2,238.7c-2.9,26.2-32,52.4-26.2,84.4l20.4,142.6
					c-20.4-20.4-32,5.8-26.2,17.5c2.9,8.7,14.6,37.8,32,11.6c23.3,43.7,46.6,128.1,78.6,165.9c99,116.4,227.1,221.3,331.9,326.1
					c26.2-5.8,46.6-5.8,52.4-23.3c8.7,17.5-8.7,34.9-23.3,37.8c46.6,29.1,99,55.3,168.8,61.1c90.2,5.8,174.7,20.4,253.3,40.8
					c40.8-11.6,81.5-17.5,125.2-20.4c14.6,0,23.3-23.3,40.8-29.1l2.9-29.1c17.5,26.2,14.6-8.7,2.9-26.2c20.4,17.5,26.2,32,34.9,43.7
					c0-8.7,23.3-40.8,23.3-2.9l5.8-37.8c8.7-5.8,11.6,32,20.4,5.8s26.2-5.8,43.7-14.6c-5.8,11.6-2.9,34.9,17.5,20.4l23.3-20.4
					c14.6,34.9,37.8,20.4,49.5,14.6c128.1-81.5,256.2-177.6,378.5-273.7l-2.9,37.8l14.6-46.6c14.6,14.6,26.2,2.9,32-5.8
					c17.5-29.1,40.8-58.2,78.6-84.4c-46.6,125.2-101.9,224.2-171.8,305.7l-29.1,34.9c0,20.4-5.8,46.6-29.1,49.5
					c-11.6,2.9-34.9-5.8-52.4,11.6c-8.7,11.6,20.4,34.9-2.9,17.5c-20.4-14.6-40.8,0-64,5.8c-17.5,5.8,11.6,23.3,17.5,34.9
					c5.8,11.6,11.6,23.3,8.7,37.8l-32-34.9c-37.8,20.4-61.1,58.2-93.2,87.3c-14.6,11.6-8.7,32-8.7,49.5c-20.4,0-43.7-5.8-55.3,5.8
					c-8.7,11.6-5.8,29.1-5.8,46.6c-29.1-2.9-32-46.6-58.2-37.8c-26.2,5.8-55.3,8.7-78.6,23.3c17.5,34.9-29.1,14.6-23.3,20.4
					c-43.7-26.2-81.5-46.6-128.1-29.1c-99-32-221.3-17.5-311.5-5.8c0-14.6,2.9-29.1-2.9-32c-5.8,14.6-23.3,8.7-20.4,8.7
					c-55.3-37.8-110.6-61.1-168.8-93.2c-52.4,5.8-101.9-20.4-116.4-34.9c-40.8-37.8-87.3-17.5-125.2-26.2
					c-81.5-20.4-110.6-104.8-119.4-163c-5.8-29.1-29.1-40.8-37.8-37.8c-37.8-122.3-96.1-232.9-142.6-346.4
					c-11.6-29.1-8.7-58.2-8.7-90.2c14.6,5.8,29.1,2.9,26.2-17.5c-14.6-96.1-49.5-168.8-87.3-238.7c20.4-99,23.3-215.4,69.9-302.8
					c40.8-78.6,116.4-119.4,168.8-186.3c17.5-23.3,17.5-55.3,34.9-75.7c58.2-58.2,116.4-119.4,180.5-171.8c29.1-23.3,64,0,107.7-8.7
					c14.6-52.4,72.8-99,128.1-84.4c23.3,5.8,69.9-55.3,84.4-61.1c23.3-8.7,11.6,23.3,11.6,43.7C841.3,150.8,917,127.5,986.9,101.3"
					/>
			</g>
			<g transform="matrix(1,0,0,1,77.63118641268308,90)">
				<g>
					<g>
						<g transform="matrix(1,0,0,1,0.9996112649235869,157.75859106679806)">
							<g id="textblocktransform">
								<g>
									<g transform="matrix(1,0,0,1,0,0)">
										<path id="text-0" fill="#FFFFFF" d="M412,1152h177.3v31.7H451.1v95.6h111.9v30.5H451.1v98.2h138.2v31.7H412V1152z
											 M665.3,1152L665.3,1152c3.5,0,6,0.5,7.7,1.4c1.7,0.9,3.6,2.6,5.7,5.3l0,0l166.6,216.8c-0.4-3.5-0.6-6.9-0.8-10.1
											c-0.1-3.3-0.2-6.5-0.2-9.6l0,0V1152h34.1v287.7h-19.7c-3.1,0-5.7-0.5-7.8-1.6c-2-1.1-4.1-2.9-6.1-5.5l0,0l-166.4-216.6
											c0.3,3.3,0.5,6.6,0.6,9.8c0.2,3.2,0.2,6.2,0.2,8.8l0,0v205h-34.1V1152H665.3z M1070.4,1152l115.1,287.7h-30.1
											c-3.5,0-6.3-0.9-8.4-2.7c-2.1-1.7-3.7-3.9-4.8-6.6l0,0l-26.9-69.5H986.1l-26.8,69.5c-1,2.4-2.6,4.6-4.9,6.4
											c-2.2,1.9-5.1,2.8-8.4,2.8l0,0h-30.1l115.1-287.7H1070.4z M1042.1,1216.1l-45.2,116.8h107.4l-45.2-117.1
											c-2.9-7.2-5.8-16.2-8.6-27.1l0,0c-1.5,5.5-2.9,10.5-4.3,15.2C1044.8,1208.6,1043.4,1212.6,1042.1,1216.1L1042.1,1216.1z
											 M1278.4,1439.7L1161.1,1152h31.2c3.5,0,6.3,0.9,8.4,2.7c2.1,1.7,3.7,3.9,4.8,6.6l0,0l81.3,203c1.9,4.6,3.6,9.5,5.1,14.9
											c1.6,5.4,3.1,10.9,4.5,16.6l0,0c1.2-5.7,2.5-11.3,3.9-16.6c1.4-5.4,3-10.3,4.9-14.9l0,0l80.9-203c0.9-2.2,2.5-4.3,4.8-6.3
											c2.2-2,5.1-3,8.4-3l0,0h31.3l-117.2,287.7H1278.4z"/>
									</g>
								</g>
							</g>
						</g>
						<g>
							<g>
								<g>
									<path fill="#FFFFFF" d="M407.6,1245.6c0,0,13.1-10.1,36.4-27.3c11.9-8.4,27.4-17.7,45.1-28.6c18.6-9.5,39-21.4,63.8-30.5
										c12-5.3,25.1-9.7,38.9-13.9c13.5-4.9,28.4-7.7,43.5-11.1c15.1-3.7,31.2-4.9,47.5-7.4c16.4-0.9,33.4-2.5,50.5-1.5
										c34.3,0.5,69.8,4.8,104.1,12.8c34.5,7.8,68.4,18.1,101.1,29.3c32.6,11.5,64.4,23.6,95.6,34.1
										c31.3,10.2,61.8,20.3,91.9,25.5c30.1,5.3,59.4,7.4,87.3,5.7c27.7-2.4,53.9-7.8,77.3-15.4c23.3-7.8,44.3-16.8,62.2-26
										c18.3-8.8,32.8-18.5,45.8-25.4c24.4-15.9,38.4-25,38.4-25s-11.3,11.5-32,31.5c-11.5,8.9-24.1,21.2-41.5,32.5
										c-16.8,11.9-37.1,24.3-61.4,35c-24.2,10.9-52.6,20-84.1,24.7c-31.5,4.3-65.7,4.6-99.8-0.3c-34.2-4.7-68-13.2-100.8-23.8
										c-32.9-10.5-65.1-22.1-97.2-33c-31.8-11.4-63.5-21.5-95.2-29.2c-31.7-7.6-63.1-13.7-93.9-15.2c-15.4-1.7-30.6-0.5-45.5-1
										c-14.8,1.3-29.6,1.2-43.6,3.6c-14.1,2-27.9,3.9-41,7.1c-13.3,2.6-26,5.5-37.9,9.4c-24.3,6.5-45.6,15.2-65.1,22
										c-18.4,8.4-35.2,14.8-48.6,21.2C423,1238.4,407.6,1245.6,407.6,1245.6z"/>
									<path fill="#FFFFFF" d="M896.1,803.7v-80.9h145.3v80.9H896.1z"/>
									<path fill="#FFFFFF" d="M960.7,706.5v-97h16.2v97H960.7z"/>
									<path fill="#FFFFFF" d="M1232.5,876.2l-111.7-346.5l-160.1,64.1v-16.2l210-105l199.2,403.7L1232.5,876.2"/>
									<path fill="#FFFFFF" d="M1202.8,921.9l-5.5,24.7h-335l-5.5-24.7h-60.7V792.1h-94.5v-172h-53.4v172h-32.9h-16.5v-41.2h-26.7
										v-64.5h-26.8v64.5h-24.6v41.2H494v105.7h96.6V922H438.6l69.8,220c13.4-7,28.1-14.4,44.6-20.5c12-5.3,25.1-9.7,38.9-13.9
										c13.5-4.9,28.4-7.8,43.5-11.1c15.1-3.7,31.2-4.9,47.5-7.4c16.4-0.9,33.4-2.5,50.5-1.5c34.3,0.5,69.8,4.8,104.1,12.8
										c34.5,7.8,68.4,18.1,101.1,29.3c32.6,11.5,64.4,23.6,95.6,34.1c31.3,10.2,62,19.3,91.9,25.5c38.9,7.9,87.8,13.9,107.8-17.2
										l5.7-10.4c2.6-3.9,5.1-8,7.5-12.5c2-3.7,3.7-7.3,5.2-10.9l117.3-216.1L1202.8,921.9L1202.8,921.9z M644,835.1H524.9v-23.3
										H644V835.1L644,835.1z M720.1,921.1h-43.2v-41.2h43.2V921.1z M720.1,856.6h-43.2v-41.2h43.2V856.6z M777.7,921.1H751v-41.2
										h26.7V921.1z M777.7,856.6H751v-41.2h26.7V856.6z"/>
								</g>
							</g>
						</g>
					</g>
				</g>
			</g>
		</g>
		<rect x="0" display="none" fill="none" width="2000" height="2250"/>
	</g>
</g>
</svg>
