<?xml version="1.0" encoding="utf-8"?>
<!-- Generator: Adobe Illustrator 27.3.1, SVG Export Plug-In . SVG Version: 6.00 Build 0)  -->
<svg version="1.1" id="SvgjsSvg1379" xmlns:svgjs="http://svgjs.dev/svgjs"
	 xmlns="http://www.w3.org/2000/svg" xmlns:xlink="http://www.w3.org/1999/xlink" x="0px" y="0px" viewBox="0 0 2000 1247"
	 enable-background="new 0 0 2000 1247" xml:space="preserve">
<g transform="matrix(1,0,0,1,-1.2121212121212466,0.504858299595071)">
	<g id="tight-bounds" transform="matrix(1,0,0,1,0.2400000000000091,-0.09999999999999432)">
		<g id="SvgjsG1377">
			<g>
				<g transform="matrix(1,0,0,1,39.55199999999999,47.75892976588629)">
					<g>
						<g>
							<g id="SvgjsG1376">
								<g>
									<g transform="matrix(1,0,0,1,0,0)">
										<g id="SvgjsG1374">
											<path fill="#FFFFFF" stroke="#00B1E9" stroke-miterlimit="10" d="M474,954.3H161.5V198.2h302.8v146.1H315.5v147h142.6
												v142.6H315.5v173.4H474V954.3z M672,954.3H524.1V198.2h155.8L749.5,560V198.2h146.1v756.1H747.7L672,575.8V954.3z
												 M1089.3,954.3h-147l73.1-756.1h256.1l72.2,756.1h-143.5L1189.6,832h-91.5L1089.3,954.3z M1137.7,326.7l-28.2,384.7h68.7
												l-33.4-384.7H1137.7z M1665.6,954.3h-206.9l-93.3-757h144.4l55.5,514.9l49.3-514.9h144.4L1665.6,954.3z"/>
										</g>
									</g>
								</g>
							</g>
						</g>
					</g>
				</g>
			</g>
		</g>
		<defs>
			<filter id="Adobe_OpacityMaskFilter" filterUnits="userSpaceOnUse" x="0.9" y="-0.9" width="1997.8" height="1249">
				<feColorMatrix  type="matrix" values="1 0 0 0 0  0 1 0 0 0  0 0 1 0 0  0 0 0 1 0"/>
			</filter>
		</defs>
		
			<mask maskUnits="userSpaceOnUse" x="0.9" y="-0.9" width="1997.8" height="1249" id="_x31_dd3154c-df1c-448b-9dd0-fc6b4e19d036_00000156585891706245982270000008083662844012461994_">
			<g id="SvgjsG1377_00000156589036578835219090000008546373777827637687_" filter="url(#Adobe_OpacityMaskFilter)">
				<g>
				</g>
				<g>
					<g transform="matrix(1,0,0,1,39.55199999999999,47.75892976588629)">
						<g>
							<g>
								<g id="SvgjsG1376_00000178926031254498029140000009948165227013357466_">
									<g>
										<g transform="matrix(1,0,0,1,0,0)">
											<g id="SvgjsG1374_00000132792307352340026170000007255585057347942022_">
												<path fill="#FFFFFF" d="M474,954.3H161.5V198.2h302.8v146.1H315.5v147h142.6v142.6H315.5v173.4H474V954.3z M672,954.3
													H524.1V198.2h155.8L749.5,560V198.2h146.1v756.1H747.7L672,575.8V954.3z M1089.3,954.3h-147l73.1-756.1h256.1
													l72.2,756.1h-143.5L1189.6,832h-91.5L1089.3,954.3z M1137.7,326.7l-28.2,384.7h68.7l-33.4-384.7H1137.7z M1665.6,954.3
													h-206.9l-93.3-757h144.4l55.5,514.9l49.3-514.9h144.4L1665.6,954.3z"/>
											</g>
										</g>
									</g>
								</g>
							</g>
						</g>
					</g>
					<g>
					</g>
				</g>
			</g>
		</mask>
		
			<rect x="1.4" y="-0.4" mask="url(#_x31_dd3154c-df1c-448b-9dd0-fc6b4e19d036_00000156585891706245982270000008083662844012461994_)" fill="none" stroke="#007594" stroke-miterlimit="10" width="1996.8" height="1248"/>
		<g id="SvgjsG1385">
			<g>
				<g transform="matrix(1,0,0,1,39.55199999999999,47.75892976588629)">
					<g>
						<g>
							<g id="SvgjsG1384">
								<g>
									<g transform="matrix(1,0,0,1,0,0)">
										<g id="SvgjsG1382">
										</g>
									</g>
								</g>
							</g>
						</g>
					</g>
				</g>
				<g>
					<path fill="none" stroke="#00B1E9" stroke-miterlimit="10" d="M1.4,1247.6V-0.4h1996.8v1248H1.4z M1929.1,1178.5V68.7H70.4
						v1109.9H1929.1z"/>
				</g>
			</g>
			<g id="SvgjsG1381">
				<g>
					<g transform="matrix(1,0,0,1,39.55199999999999,47.75892976588629)">
						<g>
							<g>
								<g id="SvgjsG1380">
									<g>
										<g transform="matrix(1,0,0,1,0,0)">
											<g id="SvgjsG1378">
											</g>
										</g>
									</g>
								</g>
							</g>
						</g>
					</g>
				</g>
			</g>
		</g>
		<rect x="1.4" y="-0.4" display="none" fill="none" width="1996.8" height="1248"/>
	</g>
</g>
</svg>
